<svg xmlns="http://www.w3.org/2000/svg" id="Layer_2" width="216.1" height="216.1"><defs><style>.cls-4{fill:#f1bc17;stroke:#000;stroke-linejoin:round;stroke-width:5px}</style></defs><g id="Layer_1-2"><circle cx="108" cy="108" r="108"/><circle cx="108" cy="108" r="97.4" style="fill:#fff"/><path d="M104 0h9v93h-9zM205 64l3 8-84 29-2-9zM213 130l-3 9-87-29 3-9zM178 189l-7 6-55-74 7-5zM45 194l-7-6 57-74 7 6zM7 142l-3-9 87-32 3 9zM9 73l3-9 86 28-2 8z"/><path d="m160 20 8 5-53 74-8-5zM44 23l8-6 54 73-8 6z"/><path d="M131 47c0-1-2-10-10-15l-13-6-13 6a27 27 0 0 0-11 22l2 10 6 10 6 9 5 6h11l4-6 6-9 6-10a26 26 0 0 0 1-17ZM165 106c2-1 9-6 11-14l2-15-10-10a27 27 0 0 0-24-4q-6 2-9 5l-7 8-7 9-4 6 1 6 2 5 8 2 10 3 11 3a26 26 0 0 0 16-4ZM120 156c1 1 8 7 17 7l14-3 7-13a27 27 0 0 0-3-24q-5-6-8-7l-10-4-11-4-7-2-5 3-4 3v8l1 11v11a26 26 0 0 0 9 14ZM58 129c0 1-4 10 0 18l7 13 14 3a27 27 0 0 0 22-11l4-10 1-11v-19l-4-3-5-3-7 2-11 4-10 4a26 26 0 0 0-11 13ZM65 62c-1-1-10-1-17 5L38 77l2 15a27 27 0 0 0 17 17l10 1 11-3 10-3 8-2 2-5 1-6-4-6-7-9-7-8a26 26 0 0 0-16-6Z" class="cls-4"/><circle cx="108" cy="99.7" r="7.8" style="fill:#f1bc17"/><path d="M112 70q0-5-4-5-5 0-4 5l2 4v13h4V74zM138 94q4-2 3-5-2-4-6-2-3 0-3 3l-13 4 1 3 13-4zM122 126q4 4 6 1 3-4 1-6l-4-2-8-11-3 3 8 10zM87 121q-2 4 1 6 4 3 6-1l1-5 7-10-3-3-7 11zM81 87q-4-1-6 2-1 4 3 5 3 1 5-1l13 4 1-3-13-4q0-3-3-3"/><circle cx="108" cy="99.7" r="12.7"/><circle cx="108" cy="99.7" r="8.5" style="stroke-miterlimit:10;stroke-width:.52613px;fill:#f1bc17;stroke:#000"/><path d="M108 211q-33 0-59-18a117 117 0 0 1 118 0q-26 18-59 18" style="fill:#999"/><path d="M108 182q26 0 49 11a97 97 0 0 1-98 0q23-11 49-11m0-10q-38 0-68 20a108 108 0 0 0 136 0q-30-20-68-20"/></g></svg>