<svg xmlns="http://www.w3.org/2000/svg" xmlns:xlink="http://www.w3.org/1999/xlink" id="7148f5f1-8839-4464-a941-0c8a08d3460a" width="678.3" height="733" data-name="Layer 1">
  <defs>
    <linearGradient id="4ca4b65a-1144-4de1-8925-6a62bc294928" x1="585.48" x2="585.48" y1="733" y2="673.63" gradientUnits="userSpaceOnUse">
      <stop offset="0" stop-color="gray" stop-opacity=".25"/>
      <stop offset=".54" stop-color="gray" stop-opacity=".12"/>
      <stop offset="1" stop-color="gray" stop-opacity=".1"/>
    </linearGradient>
    <linearGradient id="266d8c0d-4533-41a2-a7bc-3c0f98c2c2fa" x1="93.98" x2="93.98" y2="673.63" xlink:href="#4ca4b65a-1144-4de1-8925-6a62bc294928"/>
    <linearGradient id="deb99f58-9fb9-4a93-aaf8-4b4cb68821c1" x1="339.15" x2="339.15" y1="681.8" xlink:href="#4ca4b65a-1144-4de1-8925-6a62bc294928"/>
    <linearGradient id="c4ad51c6-ffe9-4991-94f6-4a02d4a38b0c" x1="339.15" x2="339.15" y1="569.14" y2="111.49" xlink:href="#4ca4b65a-1144-4de1-8925-6a62bc294928"/>
    <linearGradient id="b91b9d0a-3c7c-4b7e-8301-556f9b68b111" x1="806.95" x2="806.95" y1="427.79" y2="354.24" gradientTransform="translate(-.46 -24.57)" xlink:href="#4ca4b65a-1144-4de1-8925-6a62bc294928"/>
    <linearGradient id="8f58feb2-c461-4934-9419-72f8b76f5e61" x1="780.89" x2="780.89" y1="503.2" y2="429.65" gradientTransform="rotate(90 788.23 481.69)" xlink:href="#4ca4b65a-1144-4de1-8925-6a62bc294928"/>
    <linearGradient id="d83c7eb3-9930-4e8e-abfa-53b87d59f968" x1="565.48" x2="565.48" y1="376.26" y2="302.71" xlink:href="#4ca4b65a-1144-4de1-8925-6a62bc294928"/>
    <linearGradient id="3d971d9d-e0fc-4263-8761-c1789934eb12" x1="339.15" x2="339.15" y1="423.21" y2="255.09" xlink:href="#4ca4b65a-1144-4de1-8925-6a62bc294928"/>
    <linearGradient id="18a30a45-ec9b-4146-ae9c-2a8eabf3bdf2" x1="290.11" x2="290.11" y1="525.36" y2="499.67" xlink:href="#4ca4b65a-1144-4de1-8925-6a62bc294928"/>
    <linearGradient id="98f2a4d5-9270-4ece-b23b-fefaca1fb56f" x1="322.8" x2="322.8" y1="525.36" y2="499.67" xlink:href="#4ca4b65a-1144-4de1-8925-6a62bc294928"/>
    <linearGradient id="a36f1bde-d0b8-4d42-abdf-c9e597afa610" x1="355.49" x2="355.49" y1="525.36" y2="499.67" xlink:href="#4ca4b65a-1144-4de1-8925-6a62bc294928"/>
    <linearGradient id="a4e6c30c-4fa5-4c93-a462-54244d7638b4" x1="388.18" x2="388.18" y1="525.36" y2="499.67" xlink:href="#4ca4b65a-1144-4de1-8925-6a62bc294928"/>
    <linearGradient id="bb8b14ca-ea5c-42e9-a47f-d810d565e441" x1="339.15" x2="339.15" y1="389.93" y2="288.36" xlink:href="#4ca4b65a-1144-4de1-8925-6a62bc294928"/>
    <linearGradient id="c7b6fbbe-7ded-4a5e-a460-2ea21f819315" x1="377.6" x2="377.6" y1="380.54" y2="283.64" xlink:href="#4ca4b65a-1144-4de1-8925-6a62bc294928"/>
    <linearGradient id="b424414b-c049-456f-9819-be23a4131db6" x1="377.6" x2="377.6" y1="563.83" y2="466.93" xlink:href="#4ca4b65a-1144-4de1-8925-6a62bc294928"/>
  </defs>
  <path fill="url(#4ca4b65a-1144-4de1-8925-6a62bc294928)" d="M560.38 673.63h50.2V733h-50.2z"/>
  <path fill="#f5f5f5" d="M822.4 757.63h47.87v57.21H822.4z" transform="rotate(-180 715.91 744.23)"/>
  <path fill="url(#266d8c0d-4533-41a2-a7bc-3c0f98c2c2fa)" d="M68.88 673.63h50.2V733h-50.2z"/>
  <path fill="#f5f5f5" d="M70.05 673.63h47.87v57.21H70.05z"/>
  <rect width="678.3" height="681.8" fill="url(#deb99f58-9fb9-4a93-aaf8-4b4cb68821c1)" rx="14.86" ry="14.86"/>
  <rect width="670.12" height="670.12" x="4.67" y="3.5" fill="#fafafa" rx="14.86" ry="14.86"/>
  <path fill="url(#c4ad51c6-ffe9-4991-94f6-4a02d4a38b0c)" d="M112.66 111.49h452.98v457.65H112.66z"/>
  <path fill="#fff" d="M116.16 116.16h445.97v445.97H116.16z"/>
  <circle cx="339.15" cy="339.15" r="84.06" fill="url(#3d971d9d-e0fc-4263-8761-c1789934eb12)"/>
  <circle cx="339.15" cy="339.15" r="80.56" fill="#fafafa"/>
  <path fill="url(#18a30a45-ec9b-4146-ae9c-2a8eabf3bdf2)" d="M277.86 499.67h24.52v25.68h-24.52z"/>
  <path fill="url(#98f2a4d5-9270-4ece-b23b-fefaca1fb56f)" d="M310.55 499.67h24.52v25.68h-24.52z"/>
  <path fill="url(#a36f1bde-d0b8-4d42-abdf-c9e597afa610)" d="M343.23 499.67h24.52v25.68h-24.52z"/>
  <path fill="url(#a4e6c30c-4fa5-4c93-a462-54244d7638b4)" d="M375.92 499.67h24.52v25.68h-24.52z"/>
  <path fill="#616585" d="M278.44 500.84h23.35v23.35h-23.35z"/>
  <path fill="#616585" d="M311.13 500.84h23.35v23.35h-23.35z" opacity=".7"/>
  <path fill="#616585" d="M343.82 500.84h23.35v23.35h-23.35z" opacity=".5"/>
  <path fill="#616585" d="M376.51 500.84h23.35v23.35h-23.35z" opacity=".3"/>
  <path fill="#616585" d="M628.61 371.8h4.67v16.34h-4.67z" transform="rotate(35 633.73 -75.68)"/>
  <path fill="#616585" d="M640.84 445.92h4.67v16.34h-4.67z" transform="rotate(125 534.62 344.2)"/>
  <path fill="#616585" d="M566.72 458.15h4.67v16.34h-4.67z" transform="rotate(-145 425.38 465.45)"/>
  <path fill="#616585" d="M554.49 384.03h4.67v16.34h-4.67z" transform="rotate(-55 345.72 600.75)"/>
  <path d="M628.57 371.66h4.67V388h-4.67z" opacity=".2" transform="rotate(35 633.69 -75.82)"/>
  <path d="M640.81 445.78h4.67v16.34h-4.67z" opacity=".2" transform="rotate(125 534.58 344.06)"/>
  <path d="M566.68 458.02h4.67v16.34h-4.67z" opacity=".2" transform="rotate(-145 425.35 465.31)"/>
  <path d="M554.45 383.89h4.67v16.34h-4.67z" opacity=".2" transform="rotate(-55 345.68 600.6)"/>
  <circle cx="339.15" cy="339.15" r="50.78" fill="url(#bb8b14ca-ea5c-42e9-a47f-d810d565e441)"/>
  <circle cx="339.15" cy="339.15" r="47.87" fill="#616585"/>
  <path fill="#fff" d="M560.89 429.57A47.86 47.86 0 0 1 632.56 388a47.86 47.86 0 1 0-57 76 47.71 47.71 0 0 1-14.67-34.43z" opacity=".2" transform="translate(-260.85 -84)"/>
  <path fill="url(#c7b6fbbe-7ded-4a5e-a460-2ea21f819315)" d="M396.28 380.54h-37.36v-93.28a3.63 3.63 0 0 1 3.63-3.62h30.11a3.63 3.63 0 0 1 3.63 3.63z" transform="translate(-260.85 -84)"/>
  <path fill="url(#b424414b-c049-456f-9819-be23a4131db6)" d="M392.47 563.83h-29.74a3.81 3.81 0 0 1-3.81-3.81v-93.09h37.36V560a3.81 3.81 0 0 1-3.81 3.83z" transform="translate(-260.85 -84)"/>
  <path fill="#fafafa" d="M102.4 200.8h28.69a3.17 3.17 0 0 1 3.17 3.17v90.23h-35V204a3.17 3.17 0 0 1 3.14-3.2zM99.23 384.1h35v92.33a1.06 1.06 0 0 1-1.06 1.06H100.3a1.06 1.06 0 0 1-1.06-1.06V384.1h-.01z"/>
</svg>
