<svg xmlns="http://www.w3.org/2000/svg" id="e76419e8-217f-4623-abeb-e9c3d79c6db7" width="890.07" height="692.73" data-name="Layer 1">
  <defs>
    <linearGradient id="ef5d85de-35d2-4357-9719-f86a6844cb01" x1="507.95" x2="507.95" y1="790.48" y2="154.92" gradientUnits="userSpaceOnUse">
      <stop offset="0" stop-color="gray" stop-opacity=".25"/>
      <stop offset=".54" stop-color="gray" stop-opacity=".12"/>
      <stop offset="1" stop-color="gray" stop-opacity=".1"/>
    </linearGradient>
  </defs>
  <ellipse cx="324" cy="676.39" fill="#dd3430" opacity=".1" rx="324" ry="11.55"/>
  <path fill="#dd3430" d="M393.79 124.6c20.64-18.4 53.04-22.14 82.53-20.68 92.63 4.6 176.25 49.33 248.58 99.91 26.19 18.31 51.97 38.05 68.97 63.27 34.6 51.33 24.33 122.45-23.78 164.74-16.37 14.4-36.21 25.42-56.58 35.2-36.23 17.39-75.3 31.34-116.42 35.32-29.32 2.83-59 .53-88.14-3.43-81.43-11.04-161.36-35.46-228.35-77.24-29.38-18.32-57.08-41.1-69.19-70.75s-4.36-67.21 25.64-84.76c12.41-7.25 27.25-10.53 41.77-13.6 21.38-4.54 43.1-9 62.4-18.21 19.93-9.52 43.53-27.91 39.58-48.97-4.23-22.59-7.63-42.43 12.99-60.8z" opacity=".1" transform="translate(-154.97 -103.64)"/>
  <ellipse cx="803.42" cy="685.06" fill="#dd3430" opacity=".1" rx="86.65" ry="7.67"/>
  <path fill="url(#ef5d85de-35d2-4357-9719-f86a6844cb01)" d="M606.9 364.53c-1.4-2.73-8.86-19.7-8.86-19.7l-12.5-32.38s-8.87-13.66-8.87-16.2-16.13-12.67-16.13-12.67-13.1-3.9-14.1-4.3-16.53-5.52-16.53-5.52-6.12-8.04-6.99-5.94l-.1-.15a20.75 20.75 0 0 1-2.32-7.51l-.1-.73a29.91 29.91 0 0 0 13.13-24.62 29.51 29.51 0 0 0-.25-3.83 2.68 2.68 0 0 1 .34-.18c.25-.11.2-.2 0-.3l.2-.09c.33-.14.1-.25-.22-.38l.02-.01c.46-.2-.12-.33-.58-.54l-.07-.4a2.72 2.72 0 0 0 .18-.81l.12.06a3.41 3.41 0 0 0 0-1.52 2.68 2.68 0 0 1-.11.3 2.55 2.55 0 0 0-1.17-2.31l-.08-.07.86-8.75c12.6-.6 14.82-22.04 11.94-23.23s0-3.77 0-8.93-9.5-10.93-9.5-10.93-3.99 1.99-10.18-7.94-28.97-11.51-30.52-8.93-11.72 5.95-24.98 9.73-10.84 19.46-8.63 22.83a19.27 19.27 0 0 1 3.1 9.33c0 1.99 4.2 10.33 4.2 10.33-1.33 2.89 2.05 18.72 3.04 23.22l-.04.41-.03.04a2.12 2.12 0 0 0-.13.23 2.59 2.59 0 0 0-.2 1.5 3.12 3.12 0 0 0 .22 1.62 29.76 29.76 0 0 0 10.55 22.2l.05.83c.19 3.67.29 8.02.1 12.18l-.04.63a4.76 4.76 0 0 0-3.37 2.66c-1.25 2.4-8.51 6.1-8.51 6.1s-12.7.6-13.9 2.93-19.56 10.15-19.56 10.15-9.67 5.66-8.26 12.1c.73 3.36-1.34 8.58-3.48 12.8a60.86 60.86 0 0 0-13.92-3.46L421 324.2l-.34.53-5.85 20.67s-2.01 7.22-4.03 8.98 1.82 17.75 1.82 17.75-2.22 11.31-4.04 14.24 2.83 10.14 2.83 10.14l9.27 21.07 24.59 6.24 4.29.92-.26 1.5c-1.18 6.71-2.74 12.88-4.64 14.55-4.63 4.1-4.43 22.44-4.43 22.44l.2 25.94s1.61 32 .8 33.16c-.5.74.52 1.95 3.21 3.03l-.22 1.47c-.76 5.3-1.1 11.36.65 14.03a10.66 10.66 0 0 1 1.2 4.69c0 2.53 3.84 7.8 3.84 7.8s-3.03 21.65 2.01 29.07 9.27 20.87 6.85 23.99c0 0-4.23 9.17-2.21 13.26s0 6.44-2.62 7.42-2.4 8.97-2.4 8.97l4.82 38.04s2.62 7.8.4 10.53-2.22 16.39 1.2 21.07-4.83 13.27-4.83 13.27-5.04 7.21 3.02 9.55c0 0 1.62.4-1.4 3.52s-3.64 7.02-1.62 8.38a9.22 9.22 0 0 0 1.3.65l-.24 1.45c-.78 4.08-2.24 9.38-4.89 11.95a85.16 85.16 0 0 0-13.2 17.59c-2.76 5.24-3.97 10.15-.9 12.45 7.25 5.46 16.52 7.22 21.96 5.07s13.1-8.78 13.1-8.78l1.82-7.6s-1.21-4.69 4.83-6.44 11.7-8 11.7-8v-10.11a42.85 42.85 0 0 0 4.23-2.76s2.82-9.95 0-13.27-3.83-4.49-.2-6.63 4.12-6.83 1.46-10.93c-2.67-4.1-6.9-10.14-3.28-18.72s4.96-34.92 4.96-34.92-1.7-17.95 0-22.04-1.93-12.3-1.93-12.3 1.2-10.14 3.42-14.82 4.03-29.45 4.03-29.45 4.04-10.54 4.04-17.37-6.25-23.21 3.02-27.5c0 0 4.03 3.51 2.42 17.56 0 0 4.63 16.38 4.63 21.45s3.43 23.41 3.43 23.41.4 5.85 1.81 8 0 8 0 8 5.25 4.87 3.83 8 .25 10.16.25 10.16l-1.25 43.68s-3.63 18.72 4.83 30.04c0 0-3.02 16.58-4.83 17.75s6.65 11.31 6.65 11.31-2.35 6.57 2.42 6.9v10.85a23.2 23.2 0 0 0 6.65 7.42c4.43 3.12 2.62 13.85 2.62 13.85s5.64 13.65 20.56 10.73 16.93-4.3 16.12-9.17c-.29-1.78-.93-4.96-1.86-8.56-1.6-6.27-4.06-13.83-7-17.56-4.64-5.87-8.47-18.16-8.47-18.16s-1.82-4.1 0-5.47 1-3.9 1-3.9 1.77-5.07.18-8.19 3.05-9.56 3.05-9.56l-1.4-30.04 1.4-43.7s-6.25-7.21-3.63-11.5-3.02-10.34-3.02-10.34-.6-.2 1-5.08a12.16 12.16 0 0 0-.4-8.77s-3.42-12.1 2.63-21.27c0 0 2.62-12.1 3.42-18.33.56-4.34 4.04-20.55 6.11-30.03l.34-1.54c2.99.16 5.24.35 5.24.35s-4.63-32.18 0-38.81-3.63-57.36-3.63-57.36-1.97-8.86-3.19-17.9l-.2-1.55a97.7 97.7 0 0 1 11.26-.25c9.67.59 19.14-3.12 19.35-6.83s5.44-18.33 6.24-21.65 1.42-14.63 0-17.36z" transform="translate(-154.97 -103.64)"/>
  <path fill="#4c495a" d="M489.3 740.85v18.06s-5.45 6.21-11.27 7.96-4.67 6.41-4.67 6.41l-1.74 7.58s-7.38 6.6-12.63 8.74-14.18.38-21.17-5.05c-2.95-2.3-1.78-7.18.88-12.4a84.57 84.57 0 0 1 12.72-17.51c2.55-2.56 3.96-7.84 4.7-11.9.56-3.04.74-5.39.74-5.39z" transform="translate(-154.97 -103.64)"/>
  <path d="M489.3 754.32v4.59s-5.45 6.21-11.27 7.96-4.67 6.41-4.67 6.41l-1.74 7.58s-7.38 6.6-12.63 8.74-14.18.38-21.17-5.05c-2.95-2.3-1.78-7.18.88-12.4-.12 5.48 1.5 11.64 9.42 11.42a40.1 40.1 0 0 0 23.5-8.54s-.2-12.82 8.74-15.73a27.21 27.21 0 0 0 8.93-4.98z" opacity=".1" transform="translate(-154.97 -103.64)"/>
  <path fill="#4c495a" d="M560.38 787.07c-14.38 2.91-19.81-10.68-19.81-10.68s1.74-10.68-2.53-13.8a22.92 22.92 0 0 1-6.4-7.37v-17.87l17.47-12.43 9.46 8.37.64.56s3.7 12.24 8.16 18.09c2.83 3.71 5.2 11.24 6.75 17.48.9 3.59 1.51 6.75 1.8 8.52.77 4.86-1.17 6.22-15.54 9.13z" transform="translate(-154.97 -103.64)"/>
  <path d="M560.38 787.07c-14.38 2.91-19.81-10.68-19.81-10.68s1.74-10.68-2.53-13.8a22.92 22.92 0 0 1-6.4-7.37v-6.92c2.76 2.93 8 8.6 9.12 11 1.55 3.3 1.75 15.34 8.93 17.48s21.17 4.08 22.34-1.36a30.3 30.3 0 0 1 2.09-6c.9 3.59 1.51 6.75 1.8 8.52.77 4.86-1.17 6.22-15.54 9.13zM456.86 737.35l32.43 3.5v9.54c-3.66 2.17-8.9 4.47-11.85 2.1-4.35-3.47-17.28-7.9-21.31-9.75.55-3.04.73-5.39.73-5.39zM559.21 735.4c-4.47-1.55-12.43 5.25-22.92 9.52a10.92 10.92 0 0 1-4.66 1.05v-8.62l17.48-12.43 9.46 8.37a11.81 11.81 0 0 0 .64 2.12z" opacity=".1" transform="translate(-154.97 -103.64)"/>
  <path fill="#5f5d7e" d="M570.67 521.57l-1.5 7c-1.99 9.45-5.34 25.58-5.88 29.9-.78 6.22-3.3 18.26-3.3 18.26-5.83 9.13-2.53 21.17-2.53 21.17a12.47 12.47 0 0 1 .4 8.74c-1.56 4.85-.98 5.05-.98 5.05s5.44 6.02 2.91 10.3 3.5 11.45 3.5 11.45l-1.36 43.5 1.36 29.92s-4.47 6.4-2.94 9.51-.17 8.16-.17 8.16.78 2.53-.97 3.89 0 5.43 0 5.43c-4.47-1.55-12.43 5.25-22.92 9.52s-6.99-5.83-6.99-5.83-8.16-10.1-6.4-11.26 4.65-17.67 4.65-17.67c-8.15-11.27-4.66-29.91-4.66-29.91l1.2-43.5s-1.59-7-.23-10.11-3.69-7.96-3.69-7.96 1.36-5.83 0-7.97-1.75-7.96-1.75-7.96-3.3-18.26-3.3-23.3-4.46-21.37-4.46-21.37c1.55-13.98-2.34-17.48-2.34-17.48-8.93 4.27-2.9 20.59-2.9 27.39s-3.9 17.28-3.9 17.28-1.74 24.67-3.88 29.33-3.3 14.76-3.3 14.76 3.5 8.16 1.87 12.24 0 21.94 0 21.94-1.29 26.22-4.78 34.77.58 14.56 3.15 18.64 2.1 8.74-1.4 10.88-2.53 3.3.19 6.6 0 13.21 0 13.21-11.07 8.74-15.93 4.86-20.39-8.94-22.33-10.3-1.36-5.24 1.55-8.35 1.36-3.5 1.36-3.5c-7.77-2.33-2.91-9.51-2.91-9.51s7.96-8.55 4.66-13.21-3.3-18.26-1.17-20.98-.38-10.48-.38-10.48l-4.64-37.88s-.22-7.96 2.3-8.93 4.47-3.3 2.53-7.38 2.14-13.2 2.14-13.2c2.33-3.12-1.75-16.52-6.6-23.9S452 554.4 452 554.4s-3.69-5.24-3.69-7.77a10.88 10.88 0 0 0-1.17-4.66c-1.67-2.66-1.35-8.69-.62-13.97.71-5.11 1.79-9.53 1.79-9.53z" transform="translate(-154.97 -103.64)"/>
  <path fill="#fdc2cc" d="M532.6 301.52l-38.26 8.93s-18.84-15.92-14.18-24.47c1.6-2.94 2.31-7.95 2.55-13.25.19-4.14.09-8.46-.1-12.12-.26-5.3-.7-9.2-.7-9.2s39.23-22.14 37.87 0a56.55 56.55 0 0 0 .26 11.06 21.15 21.15 0 0 0 2.25 7.48c2.1 3.74 4.68 3.8 4.68 3.8z" transform="translate(-154.97 -103.64)"/>
  <path d="M520.04 262.47a30.1 30.1 0 0 1-37.42-1.86c-.27-5.3-.7-9.2-.7-9.2s39.22-22.14 37.86 0a56.55 56.55 0 0 0 .26 11.06z" opacity=".1" transform="translate(-154.97 -103.64)"/>
  <circle cx="347.53" cy="133.59" r="30.1" fill="#fdc2cc"/>
  <path d="M532.6 301.52l-38.26 8.93s-18.84-15.92-14.18-24.47c1.6-2.94 2.31-7.95 2.55-13.25a19.52 19.52 0 0 0 6.97 11.7c8.74 5.82 7.38 13 7.38 13l15.73-.57c-.97-6.41 4.86-9.91 6.8-10.69s.97-4.27.97-4.27l1.73-11.95c2.1 3.74 4.68 3.8 4.68 3.8zM570.67 521.57l-1.5 7c-4.22-.22-9.8-.38-12.29.19-4.27.97-21.36 1.36-21.36 1.36l-42.34 1.5v-1.31a124.84 124.84 0 0 0-14.57.97c-7.19.97-18.45-.39-25.64-1.55a27.6 27.6 0 0 1-6.45-1.74c.71-5.11 1.79-9.53 1.79-9.53z" opacity=".1" transform="translate(-154.97 -103.64)"/>
  <path fill="#dd3430" d="M567.37 398.24c-.62 3.63-.17 9.64.61 15.58 1.17 9 3.08 17.83 3.08 17.83s7.96 50.5 3.5 57.1 0 38.65 0 38.65-13.4-1.17-17.68-.2-21.36 1.36-21.36 1.36l-42.34 1.5v-1.3a124.84 124.84 0 0 0-14.57.97c-7.19.97-18.45-.4-25.64-1.56s-10.1-3.5-9.32-4.66-.78-33.02-.78-33.02l-.2-25.83s-.19-18.25 4.28-22.33c1.83-1.67 3.33-7.81 4.47-14.5 1.64-9.66 2.52-20.46 2.52-20.46l-29.52-79.05-.58-1.55s8.54-13.21 7.18-19.62S439 295.1 439 295.1s17.67-7.77 18.84-10.1 13.4-2.92 13.4-2.92 6.99-3.69 8.2-6.08a4.6 4.6 0 0 1 3.25-2.65 19.56 19.56 0 0 0 7 11.84c8.74 5.83 7.38 13.02 7.38 13.02l15.73-.59c-.97-6.4 4.86-9.9 6.8-10.68s.97-4.27.97-4.27l1.82-12.58c.84-2.09 6.73 5.91 6.73 5.91s14.95 5.11 15.92 5.5 13.6 4.28 13.6 4.28 15.54 10.1 15.54 12.62 8.54 16.12 8.54 16.12l-.29 1.54c-1.97 10.7-13.63 73.82-15.05 82.17z" transform="translate(-154.97 -103.64)"/>
  <path fill="#fdc2cc" d="M505.22 366.78s-33.6-8.94-36.9-11.08-22.73 10.3.97 27.2c0 0 28.97 6.02 36.72 0s-.8-16.12-.8-16.12z" transform="translate(-154.97 -103.64)"/>
  <path d="M577.86 313.56l4.07.2 12.05 32.23s7.18 16.9 8.54 19.62.78 13.98 0 17.29-5.82 17.86-6.02 21.55-9.32 7.38-18.64 6.8-31.08 2.33-31.08 2.33-23.23-2.43-37.48 4.86c0 0-9.13-18.84-8.16-54 0 0 16.12-.97 20.2.59s23.89 6.02 26.41 3.69 13.99 4.27 13.99 4.27a9.84 9.84 0 0 0 0-8.16c-1.95-4.66-5.25-19.22-.98-23.89s17.1-27.38 17.1-27.38z" opacity=".1" transform="translate(-154.97 -103.64)"/>
  <path d="M567.98 413.82c-9.64.65-20.42 2.1-20.42 2.1s-23.23-2.44-37.49 4.85c0 0-9.13-18.84-8.15-54 0 0 16.12-.97 20.2.59s23.88 6.02 26.4 3.69 14 4.27 14 4.27a9.84 9.84 0 0 0 0-8.16c-1.95-4.66-5.25-19.22-.98-23.89s17.1-27.38 17.1-27.38l3.78.18c-1.97 10.7-13.63 73.82-15.05 82.17-.62 3.63-.17 9.64.61 15.58z" opacity=".1" transform="translate(-154.97 -103.64)"/>
  <path fill="#dd3430" d="M578.63 314.34l4.08.19 12.04 32.24s7.19 16.9 8.55 19.62.78 13.98 0 17.28-5.83 17.87-6.02 21.56-9.32 7.38-18.65 6.8-31.07 2.33-31.07 2.33-23.23-2.43-37.49 4.86c0 0-9.13-18.84-8.15-54 0 0 16.12-.97 20.2.58s23.88 6.03 26.4 3.7 14 4.27 14 4.27a9.84 9.84 0 0 0 0-8.16c-1.95-4.66-5.25-19.23-.98-23.89s17.1-27.38 17.1-27.38z" transform="translate(-154.97 -103.64)"/>
  <path fill="#dfe6f5" d="M550.68 339.72h5.7v51.3h-5.7z" transform="rotate(-148.23 461.3 335.6)"/>
  <ellipse cx="573.51" cy="333.09" fill="#dfe6f5" rx="16.42" ry="11.51" transform="rotate(-58.23 403 420.38)"/>
  <ellipse cx="573.51" cy="333.09" opacity=".1" rx="11.78" ry="8.26" transform="rotate(-58.23 403 420.38)"/>
  <path fill="#53526b" d="M531.77 379.94h5.7v31.92h-5.7z" transform="rotate(-148.23 442.4 366.13)"/>
  <path fill="#fdc2cc" d="M495.31 409.9l11.85-3.3s58.46 1.54 38.84-22.54c0 0-10.29-9.9-31.85-1.94s-27.58 8.93-27.58 8.93z" transform="translate(-154.97 -103.64)"/>
  <circle cx="331.61" cy="202.35" r="2.33" opacity=".1"/>
  <circle cx="371.62" cy="200.99" r="2.33" opacity=".1"/>
  <circle cx="331.61" cy="201.57" r="2.33" fill="#fff"/>
  <circle cx="334.91" cy="234.59" r="2.33" opacity=".1"/>
  <circle cx="372.78" cy="232.26" r="2.33" opacity=".1"/>
  <circle cx="334.91" cy="233.81" r="2.33" fill="#fff"/>
  <circle cx="371.81" cy="344.73" r="2.33" opacity=".1"/>
  <circle cx="341.14" cy="344.73" r="2.33" opacity=".1"/>
  <circle cx="371.81" cy="343.95" r="2.33" fill="#fff"/>
  <circle cx="343.47" cy="383.75" r="2.33" opacity=".1"/>
  <circle cx="372.78" cy="381.42" r="2.33" opacity=".1"/>
  <circle cx="343.47" cy="382.97" r="2.33" fill="#fff"/>
  <circle cx="341.14" cy="343.95" r="2.33" fill="#fff"/>
  <circle cx="372.78" cy="380.64" r="2.33" fill="#fff"/>
  <circle cx="371.62" cy="200.21" r="2.33" fill="#fff"/>
  <circle cx="372.78" cy="231.48" r="2.33" fill="#fff"/>
  <path d="M531.24 416.88s.4 53.22 1.56 62.74c0 0 .42-60.23-1.56-62.74zM541.15 441.55c-.8 0 15.92 62.35 16.7 66.81s-12.04-66.8-16.7-66.8zM554.36 431.45c0 .58 9.32 33.8 13.98 35.54s-13.98-35.54-13.98-35.54zM591.06 366.78s-19.8.88-20.39 3.74 20.4-3.74 20.4-3.74zM556.1 620.04s-14.18 6.02-12.04 6.4 12.04-6.4 12.04-6.4zM526.78 611.1c-.56-1.24 9.51 5.06 9.51 5.83s-8.74-4.08-9.51-5.82zM539.98 631.5s11.07-.56 11.85 3.7-11.85-3.7-11.85-3.7zM460.35 631.48s12.04-2.36 13.01 0-13 0-13 0zM464.82 704.72s.79 9.9-2.13 12.24 2.13-12.24 2.13-12.24zM463.35 725.7c3.8.39 23.8-3.11 23.61 0s-23.61 0-23.61 0zM555.13 713.65s-6.82-1.04-5.16 3.56zM428.3 325.99h-3.68l-5.64 20.59s-1.94 7.18-3.88 8.93 1.75 17.67 1.75 17.67-2.14 11.27-3.89 14.18 2.72 10.1 2.72 10.1l8.94 20.98 23.69 6.21s41.76 9.13 43.7 10.5 3.69-.6 5.05-13.22 5.05-37.1 7.96-38.26c0 0-23.3 2.53-25.25 2.14s-11.26.2-11.26.2-12.24-.78-14.18.38 2.53-5.64 2.53-5.64a18.73 18.73 0 0 0 0-9.5c-1.36-5.25-2.14-64.68-28.55-45.26z" opacity=".1" transform="translate(-154.97 -103.64)"/>
  <path d="M504.25 386c-2.92 1.17-6.6 25.64-7.97 38.26s-3.1 14.57-5.05 13.21c-1.57-1.1-29.41-7.33-39.81-9.63 1.64-9.67 2.52-20.47 2.52-20.47l-29.52-79.05h3.1c26.42-19.42 27.2 40 28.56 45.25a18.74 18.74 0 0 1 0 9.51s-4.47 6.8-2.53 5.64 14.18-.39 14.18-.39 9.33-.58 11.27-.19 25.25-2.14 25.25-2.14z" opacity=".1" transform="translate(-154.97 -103.64)"/>
  <path fill="#dd3430" d="M427.53 326.77h-3.7l-5.62 20.58s-1.95 7.19-3.89 8.94 1.75 17.67 1.75 17.67-2.14 11.27-3.88 14.18 2.71 10.1 2.71 10.1l8.94 20.98 23.7 6.21s41.75 9.13 43.7 10.49 3.68-.58 5.04-13.2 5.05-37.1 7.97-38.27c0 0-23.31 2.52-25.25 2.14s-11.27.19-11.27.19-12.23-.78-14.18.39 2.53-5.64 2.53-5.64a18.73 18.73 0 0 0 0-9.51c-1.36-5.24-2.14-64.68-28.55-45.25z" transform="translate(-154.97 -103.64)"/>
  <path d="M440.15 397.07s-10.68 20.2-12.62 17.87 12.62-17.87 12.62-17.87zM429.08 385.57s-9.9 8.2-5.24 10.34 5.24-10.34 5.24-10.34zM438.4 375.52c.78.19 14.38 2.89 14.57 4.06s-14.57-4.06-14.57-4.06zM532.69 233.24a2 2 0 0 0-1.33 2.08c-.8.7-1.9-.13-2.55-1.02-.65-.88-1.39-1.98-2.38-1.86a8.53 8.53 0 0 0-1.36.57c-1.55.5-2.86-1.33-3.73-2.93l-4.55-8.4c-3.03 1.76-6.62-.09-9.64-1.91s-6.6-3.69-9.65-1.92c-4.46 2.58-4.63 11.18-9.26 13.3-1.49.68-3.22.53-4.6 1.47-1.37.93-2.11 2.73-2.72 4.45a4.7 4.7 0 0 1-1.53 2.5 3.35 3.35 0 0 1-1.57.39 6.73 6.73 0 0 1-4.04-.57 3.41 3.41 0 0 1-1.4-4.04 2.11 2.11 0 0 1 .13-.23 14.14 14.14 0 0 0 1.34-1.91c.46-1.24-.2-2.68-.06-4.01.24-2.29 2.66-3.5 3.07-5.74.17-.87 0-1.81.16-2.7a2.46 2.46 0 0 1 .09-.34l-1.42.98c1.59-1.86 2.4-4.44 3.56-6.7a20.6 20.6 0 0 1 12.57-10.22c5.06-1.48 10.41-1.08 15.53.17a51.14 51.14 0 0 1 13.82 5.7 13.71 13.71 0 0 1 4.02 3.27 25.2 25.2 0 0 1 2.39 4.4c1.5 3.13 5.62 6.02 2.34 6.45-2.72.37-.24 2.28 1.2 3.57a3.7 3.7 0 0 1 .81.9 3.23 3.23 0 0 1-.17 3.12c-.55.7 1.69.83.93 1.18z" opacity=".1" transform="translate(-154.97 -103.64)"/>
  <path fill="#865a61" d="M532.69 232.46a2 2 0 0 0-1.33 2.08c-.8.7-1.9-.12-2.55-1.02-.65-.88-1.39-1.98-2.38-1.85a8.53 8.53 0 0 0-1.36.56c-1.55.5-2.86-1.32-3.73-2.92l-4.55-8.41c-3.03 1.76-6.62-.09-9.64-1.91s-6.6-3.68-9.65-1.92c-4.46 2.58-4.63 11.18-9.26 13.3-1.49.68-3.22.54-4.6 1.48-1.37.93-2.11 2.72-2.72 4.44a4.7 4.7 0 0 1-1.53 2.5 3.35 3.35 0 0 1-1.57.39 6.73 6.73 0 0 1-4.04-.57 3.41 3.41 0 0 1-1.4-4.04 2.11 2.11 0 0 1 .13-.22 14.14 14.14 0 0 0 1.34-1.92c.46-1.24-.2-2.67-.06-4.01.24-2.28 2.66-3.49 3.07-5.73.17-.88 0-1.82.16-2.7a2.46 2.46 0 0 1 .09-.35l-1.42.98c1.59-1.86 2.4-4.44 3.56-6.69a20.6 20.6 0 0 1 12.57-10.23c5.06-1.48 10.41-1.07 15.53.18a51.14 51.14 0 0 1 13.82 5.7 13.71 13.71 0 0 1 4.02 3.26 25.2 25.2 0 0 1 2.39 4.4c1.5 3.13 5.62 6.02 2.34 6.46-2.72.36-.24 2.27 1.2 3.56a3.7 3.7 0 0 1 .81.9 3.23 3.23 0 0 1-.17 3.12c-.55.7 1.69.84.93 1.18z" transform="translate(-154.97 -103.64)"/>
  <path d="M531.11 227.26l-.31 3.27s-32.6-41.31-57.96 5.34l-.33-1.52a14.14 14.14 0 0 0 1.34-1.92c.46-1.24-.2-2.67-.06-4.01.24-2.28 2.66-3.49 3.07-5.73.17-.88 0-1.82.16-2.7a2.46 2.46 0 0 1 .09-.35l-1.42.98c1.59-1.86 2.4-4.44 3.56-6.69a20.6 20.6 0 0 1 12.57-10.23c5.06-1.48 10.41-1.07 15.53.18a51.14 51.14 0 0 1 13.82 5.7 13.71 13.71 0 0 1 4.02 3.26 25.2 25.2 0 0 1 2.39 4.4c1.5 3.13 5.62 6.02 2.34 6.46-2.72.36-.24 2.27 1.2 3.56z" opacity=".1" transform="translate(-154.97 -103.64)"/>
  <g opacity=".1">
    <path d="M531.91 232.04a1.57 1.57 0 0 0-.36 1.34c-.8.7-1.9-.12-2.55-1.02-.66-.88-1.4-1.98-2.38-1.85a8.53 8.53 0 0 0-1.36.56c-1.55.5-2.87-1.32-3.74-2.93l-4.54-8.4c-3.04 1.76-6.63-.09-9.64-1.91s-6.6-3.68-9.65-1.92c-4.47 2.58-4.63 11.18-9.26 13.3-1.5.68-3.23.54-4.6 1.48-1.38.93-2.11 2.72-2.73 4.44a4.7 4.7 0 0 1-1.52 2.5 3.35 3.35 0 0 1-1.57.39 6.73 6.73 0 0 1-4.04-.57 3.63 3.63 0 0 1-1.51-2.13 3.5 3.5 0 0 0 1.51 3.69 6.73 6.73 0 0 0 4.04.56 3.35 3.35 0 0 0 1.57-.38 4.7 4.7 0 0 0 1.52-2.5c.62-1.72 1.35-3.52 2.72-4.45 1.38-.94 3.12-.8 4.6-1.48 4.64-2.12 4.8-10.72 9.27-13.3 3.04-1.76 6.63.1 9.65 1.92s6.6 3.68 9.64 1.91l4.54 8.4c.87 1.6 2.19 3.43 3.74 2.94a8.53 8.53 0 0 1 1.36-.57c.99-.12 1.72.97 2.38 1.86.64.9 1.75 1.71 2.55 1.01a2 2 0 0 1 1.32-2.08c.6-.27-.68-.41-.96-.81zM529.37 224.27a2.81 2.81 0 0 1 .74-.18c1.44-.2 1.45-.86.88-1.82a2.27 2.27 0 0 1-.88.27c-1.56.2-1.41.92-.74 1.73zM532.35 230.78a3.51 3.51 0 0 0 0-1.52 2.24 2.24 0 0 1-.4.86c-.24.3.06.5.4.66zM474.02 228.54l-.04.27a8.91 8.91 0 0 0 .15 2.1 7.35 7.35 0 0 0-.1-2.37zM477.18 219.07a11.27 11.27 0 0 1-1.3 1.94l1.25-.86a8.69 8.69 0 0 1 .05-1.08z" transform="translate(-154.97 -103.64)"/>
  </g>
  <path fill="#dd3430" d="M472.84 235.1s-4.68-20.96-3.2-24.32c0 0-4.04-8.3-4.04-10.28a19.63 19.63 0 0 0-2.98-9.3c-2.14-3.36-4.48-18.97 8.3-22.73s22.6-7.12 24.08-9.69 23.44-.99 29.4 8.9 9.8 7.9 9.8 7.9 9.17 5.74 9.17 10.88-2.77 7.71 0 8.9.64 22.53-11.5 23.13l-1.07 11.27s-32.6-41.32-57.96 5.33z" transform="translate(-154.97 -103.64)"/>
  <path d="M474.24 172.55s-2.82 16.51 2.33 22.05zM487.45 168.77s-7.19 17.67-5.44 21.07zM493.66 163.13s-4.85 23.02-2.52 24.86zM502.01 169.35s-6.02 14.76-3.6 16.8zM513.37 171.1s-7.08 12.04-5.63 14.18zM527.94 182.85s-7.57 2.04-6.02 4.46zM535.13 195.38s-6.8 3.3-5.54 5.04zM469.65 210.78s43.42-17.64 62.22 7.7c0 0-22.82-19.4-62.22-7.7z" opacity=".1" transform="translate(-154.97 -103.64)"/>
  <path fill="#53526b" d="M298.99 252.05l6.05-6.12 17.11 16.91-6.05 6.12-15.73-15.55-1.38-1.36z"/>
  <path fill="#dfe6f5" d="M414.27 316.45s26.48 2.26 51.12 30l-10.27 10.39z" transform="translate(-154.97 -103.64)"/>
  <path fill="#fdc2cc" d="M493.69 366.05s-25.45-9.27-27.95-11.5-17.21 10.7.73 28.24c0 0 21.95 6.26 27.82 0s-.6-16.74-.6-16.74z" transform="translate(-154.97 -103.64)"/>
  <path fill="#535461" d="M804.65 439.74h5.17v116.44h-5.17z"/>
  <path fill="#65617d" d="M997.3 659.46l-.34 5.24-.45 7.4-.2 3.09-.45 7.4-.2 3.1-.45 7.4-5.22 84.18a14.26 14.26 0 0 1-14.23 13.38h-27.11a14.25 14.25 0 0 1-14.22-13.38l-5.23-84.18-.46-7.4-.19-3.1-.46-7.4-.2-3.09-.45-7.4-.33-5.24a7.39 7.39 0 0 1 7.38-7.84h55.44a7.38 7.38 0 0 1 7.36 7.84z" transform="translate(-154.97 -103.64)"/>
  <path fill="#9d9cb5" d="M842 561.07l-.46 7.4h-68.61l-.46-7.4H842zM841.35 571.55l-.46 7.41h-67.3l-.47-7.41h68.23zM840.7 582.05l-.46 7.4h-66.01l-.45-7.4h66.92z"/>
  <path fill="#dd3430" d="M919.54 587.02c30.12 21.79 42.66 55.87 42.66 55.87s-36.3-1.25-66.41-23.04-42.66-55.87-42.66-55.87 36.3 1.25 66.41 23.04z" transform="translate(-154.97 -103.64)"/>
  <path fill="none" stroke="#535461" stroke-miterlimit="10" stroke-width="2" d="M698.16 460.35s37.67 20.91 49.76 38.22 59.32 40.68 59.32 40.68"/>
  <path fill="#dd3430" d="M938.98 543.12c16.4 11.86 23.22 30.4 23.22 30.4s-19.75-.67-36.15-12.53-23.22-30.4-23.22-30.4 19.76.67 36.15 12.53z" transform="translate(-154.97 -103.64)"/>
  <path fill="none" stroke="#535461" stroke-miterlimit="10" stroke-width="2" d="M747.87 426.95s20.5 11.38 27.08 20.8 32.29 22.14 32.29 22.14"/>
  <path fill="#dd3430" d="M986.03 572.58c-18.83 20.7-22.82 47.74-22.82 47.74s26.55-6.51 45.38-27.2 22.81-47.75 22.81-47.75-26.54 6.52-45.37 27.21z" transform="translate(-154.97 -103.64)"/>
  <path fill="none" stroke="#535461" stroke-miterlimit="10" stroke-width="2" d="M876.44 441.74s-24.53 21.21-30.76 35.83-37.43 39.12-37.43 39.12"/>
</svg>
