<svg xmlns="http://www.w3.org/2000/svg" id="bafe8b78-4c8e-4247-a450-f8fe2d5894b0" width="1025.5" height="720.71" data-name="Layer 1">
  <ellipse cx="521.81" cy="689.12" fill="#3f3d56" rx="503.69" ry="31.6"/>
  <path fill="#3f3d56" d="M125.94 747.78C137.5 769.2 162 778.4 162 778.4s5.8-25.54-5.76-46.96-36.06-30.61-36.06-30.61-5.79 25.53 5.76 46.95z" transform="translate(-87.25 -89.64)"/>
  <path fill="#186dea" d="M133.88 740.74c20.85 12.54 28.88 37.46 28.88 37.46s-25.77 4.58-46.63-7.97-28.88-37.46-28.88-37.46 25.78-4.58 46.63 7.97z" transform="translate(-87.25 -89.64)"/>
  <path fill="#f2f2f2" d="M101.72 88.34h825.32v26.26H101.72z"/>
  <path fill="#186dea" d="M927.03 681.25H101.72V504.12l91.11-78.33 734.2-55.67v311.13z"/>
  <circle cx="123.8" cy="101.08" r="6.8" fill="#186dea"/>
  <circle cx="145.89" cy="101.08" r="6.8" fill="#186dea"/>
  <circle cx="167.97" cy="101.08" r="6.8" fill="#186dea"/>
  <path fill="#fff" d="M101.72 503.71l825.31-134.44V114.6H101.72v389.11z"/>
  <path fill="#3f3d56" d="M921.89 649.92q-33.42-5.66-64.28-9.72l8.13-15.77c-2.74-.95-14.79 8.08-14.79 8.08l10.67-45.78c-13.79 1.67-20.8 48.4-20.8 48.4l-15.41-15.8 7.46 17.77c-62.97-7.42-117.35-10.17-163.1-10.27l6.97-13.5c-2.74-.95-14.8 8.08-14.8 8.08l10.68-45.77c-13.8 1.66-20.8 48.4-20.8 48.4l-15.42-15.8 7.9 18.82a916.12 916.12 0 0 0-93.75 6.37c7.04-21.03 30.96-41.03 30.96-41.03-18.27 5.44-27.85 14.54-32.85 23.03a368.67 368.67 0 0 1 21.3-127.38s-37.75 82.16-32.93 137.3l.57 9.8c-32 4.58-48.1 9.35-48.1 9.35z" transform="translate(-87.25 -89.64)"/>
  <path fill="#3f3d56" d="M161.28 263.98h230.47v9.29H161.28zM161.28 284.43h230.47v9.29H161.28zM161.28 304.87h78.06v9.29h-78.06z"/>
  <circle cx="488.09" cy="663.61" r="9.07" fill="#f2f2f2"/>
  <circle cx="514.38" cy="664.52" r="9.07" fill="#f2f2f2"/>
  <circle cx="540.67" cy="665.43" r="9.07" fill="#f2f2f2"/>
  <circle cx="514.46" cy="664.52" r="7.25" fill="#3f3d56"/>
  <circle cx="773.31" cy="133.24" r="83.98" fill="#ff6584"/>
  <path fill="#186dea" d="M919.02 324.05c16.53 112.83-44.77 162.05-127.5 174.17q-2.9.42-5.76.78-5.77.72-11.46 1.14c-75.44 5.66-139.53-27.26-154.9-132.19-15.92-108.6 102.79-265.97 111.71-277.63l.02-.01.51-.67s170.85 121.58 187.38 234.4z" transform="translate(-87.25 -89.64)"/>
  <path fill="#3f3d56" d="M783.53 481.76l43.57-84.58-42.48 93 1.14 8.82q-5.77.72-11.46 1.14L763.67 386.4l-.18-.87.08-.18-1-10.75-67.55-77.1 66.54 69.09.47 2.24L754 282.9l-60.03-81.1 58.42 66.03-21.27-177.5-.07-.59.09.58 19.66 139.55 38.82-62.15-37.26 74.2 9.94 76.54 33.1-79.7-31.62 90.95 5.53 42.57 48.66-111.33-46.74 126.17z" transform="translate(-87.25 -89.64)"/>
</svg>
