<svg width="688" height="688" viewBox="0 0 688 688" fill="none" xmlns="http://www.w3.org/2000/svg">
<g clip-path="url(#clip0_216_429)">
<path d="M227.017 613.524C207.737 611.573 189.316 604.341 173.416 592.479C167.757 588.258 157.868 578.368 153.601 572.664C138.297 552.204 130.747 527.316 132.515 503.154C134.475 476.362 144.684 453.788 163.189 435.328C172.141 426.397 182.396 419.312 193.722 414.231C199.927 411.447 307.17 376.458 307.399 377.143C308.118 379.301 312.476 385.866 315.025 388.633C316.777 390.533 318.21 392.205 318.21 392.347C318.21 392.49 310.545 403.107 301.177 415.942C283.874 439.647 282.881 441.242 284.337 442.996C285.027 443.827 287.062 443.874 288.1 443.083C288.514 442.768 296.418 432.072 305.664 419.314C314.91 406.556 322.631 395.952 322.821 395.75C323.011 395.549 324.609 396.113 326.373 397.004C329.644 398.656 334.788 400.214 338.745 400.749L340.95 401.047V458.052C340.95 494.291 340.773 516.807 340.465 519.862C337.106 553.172 317.834 582.839 288.374 600.048C277.318 606.506 264.849 610.814 251.382 612.829C245.374 613.728 232.624 614.092 227.017 613.524ZM441.888 613.513C430.991 612.381 420.139 609.649 410.737 605.672C380.212 592.759 357.186 565.566 349.61 533.486C346.736 521.314 346.81 523.168 346.643 459.384L346.491 401.06L349.173 400.733C352.483 400.329 359.503 398.086 362.236 396.558C363.355 395.933 364.419 395.421 364.6 395.421C364.781 395.421 372.639 406.061 382.061 419.066C391.483 432.071 399.668 442.969 400.249 443.284C400.985 443.682 401.69 443.722 402.569 443.414C403.574 443.063 403.86 442.641 403.965 441.357C404.085 439.886 402.536 437.601 386.701 415.883L369.305 392.025L372.574 388.525C375.63 385.252 379.933 378.776 379.933 377.448C379.933 377.123 380.186 376.858 380.496 376.858C381.906 376.858 489.256 412.041 493.169 413.786C525.057 428.003 547.413 456.259 553.911 490.558C560.789 526.868 547.049 565.295 518.693 589.051C503.591 601.704 485.552 609.876 466.224 612.82C460.242 613.731 447.485 614.095 441.888 613.513ZM158.101 409.144C134.967 406.202 114.771 396.634 98.2795 380.803C80.9471 364.164 70.5901 344.056 66.8463 319.776C65.7189 312.464 65.7177 298.327 66.844 291.003C71.5657 260.293 87.5595 235.069 113.085 218.073C144.798 196.957 187.457 195.351 220.831 214.015C230.247 219.281 240.323 227.178 246.524 234.152C248.302 236.151 250.252 238.309 250.857 238.947C251.461 239.584 266.875 260.649 285.109 285.757L318.263 331.409L315.399 334.526C312.417 337.77 309.997 341.246 308.328 344.681C307.791 345.787 307.092 346.692 306.775 346.692C306.459 346.692 293.996 342.725 279.079 337.875C264.163 333.025 251.349 329.057 250.603 329.057C249.857 329.057 248.996 329.308 248.69 329.614C247.834 330.47 248.029 332.532 249.052 333.458C249.557 333.915 262.43 338.327 277.658 343.263C292.885 348.198 305.408 352.3 305.486 352.378C305.564 352.456 305.436 353.349 305.201 354.363C304.681 356.603 304.652 366.622 305.156 369.225L305.521 371.106L252.115 388.46C222.741 398.005 197.246 406.192 195.46 406.653C184.77 409.411 168.653 410.486 158.101 409.144ZM506.395 409.268C497.421 408.258 491.091 406.395 436.931 388.82L382.189 371.057L382.465 369.665C383.157 366.18 383.242 358.424 382.622 355.473L381.98 352.42L409.802 343.416C425.105 338.464 438.114 334.028 438.712 333.558C439.897 332.626 440.176 330.548 439.242 329.614C438.936 329.308 438.072 329.057 437.322 329.057C436.572 329.057 424.692 332.723 410.922 337.204C397.151 341.685 384.631 345.741 383.099 346.218L380.313 347.085L379.369 344.952C377.896 341.621 375.519 338.152 372.497 334.921C370.971 333.29 369.723 331.816 369.723 331.645C369.723 331.474 385.013 310.324 403.7 284.645C431.548 246.379 438.554 237.042 442.535 232.887C456.007 218.828 472.596 209.145 491.615 204.24C500.983 201.824 506.195 201.215 517.533 201.215C528.828 201.215 534.361 201.857 543.589 204.236C580.731 213.813 610 243.491 619.091 280.793C622.864 296.276 622.971 313.489 619.387 328.873C610.349 367.677 579.35 398.507 540.57 407.261C530.278 409.584 516.427 410.398 506.395 409.268ZM335.381 394.472C323.652 391.446 314.548 382.455 311.179 370.572C309.718 365.417 309.718 358.133 311.179 352.979C314.603 340.9 323.73 332.015 335.812 328.998C339.043 328.191 340.66 328.06 345.094 328.243C354.325 328.626 360.936 331.477 367.434 337.875C377.925 348.204 380.521 363.026 374.141 376.162C369.54 385.632 361.819 391.997 351.897 394.496C347.059 395.715 340.16 395.705 335.381 394.472ZM290.365 283.042C272.37 258.26 256.996 237.017 256.2 235.836C248.039 223.727 242.272 207.841 240.173 191.689C239.313 185.065 239.434 171.169 240.408 164.772C243.827 142.319 253.515 122.604 268.998 106.591C284.963 90.0786 305.777 79.472 329.348 75.8377C336.598 74.7197 350.703 74.721 358.33 75.8402C405.815 82.8089 441.869 119.851 447.715 167.675C448.536 174.394 448.054 190.041 446.818 196.794C444.37 210.167 440.032 221.602 432.728 233.928C431.295 236.348 366.596 326.041 364.84 328.044C364.77 328.124 363.49 327.579 361.996 326.832C358.112 324.89 353.97 323.556 349.982 322.962L346.519 322.447V292.431C346.519 269.704 346.383 262.28 345.962 261.858C345.242 261.139 342.69 261.139 341.971 261.858C341.549 262.28 341.414 269.705 341.414 292.434V322.453L338.836 322.775C335.026 323.251 329.979 324.751 326.563 326.422C324.904 327.233 323.442 327.943 323.315 327.999C323.187 328.056 308.359 307.825 290.365 283.042Z" fill="white"/>
<circle cx="344" cy="255.898" r="7" fill="white" stroke="black" stroke-width="3"/>
<circle cx="243.5" cy="328.898" r="7" fill="white" stroke="black" stroke-width="3"/>
<circle cx="282.5" cy="443.898" r="7" fill="white" stroke="black" stroke-width="3"/>
<circle cx="404.5" cy="444.898" r="7" fill="white" stroke="black" stroke-width="3"/>
<circle cx="441.5" cy="329.898" r="7" fill="white" stroke="black" stroke-width="3"/>
<path d="M304.474 52.9776C311.586 54.8835 315.808 62.1946 313.902 69.3075C311.996 76.4204 304.685 80.6415 297.572 78.7356C290.459 76.8297 286.238 69.5185 288.144 62.4057C290.05 55.2928 297.361 51.0717 304.474 52.9776ZM165.51 126.164L163.944 124.215L163.944 124.215L165.51 126.164ZM301.422 68.3244C252.221 76.2928 205.93 96.8938 167.076 128.113L163.944 124.215C203.473 92.4541 250.567 71.4955 300.623 63.3887L301.422 68.3244ZM167.076 128.113C128.222 159.332 98.1347 200.1 79.7571 246.431L75.1094 244.587C93.806 197.452 124.415 155.976 163.944 124.215L167.076 128.113Z" fill="white"/>
<path d="M629.795 235.684C629.795 243.048 623.826 249.018 616.462 249.018C609.098 249.018 603.129 243.048 603.129 235.684C603.129 228.32 609.098 222.351 616.462 222.351C623.826 222.351 629.795 228.321 629.795 235.684ZM523.136 120.398L524.614 118.381L524.614 118.381L523.136 120.398ZM614.182 236.709C593.751 191.247 561.871 151.865 521.659 122.415L524.614 118.381C565.523 148.342 597.957 188.408 618.742 234.66L614.182 236.709ZM521.659 122.415C481.448 92.9645 434.282 74.4543 384.773 68.6942L385.351 63.7277C435.719 69.5878 483.704 88.4193 524.614 118.381L521.659 122.415Z" fill="white"/>
<path d="M629.175 459.117L631.547 459.906L631.547 459.906L629.175 459.117ZM558.88 575.544C554.614 569.541 546.29 568.133 540.288 572.398C534.285 576.664 532.877 584.988 537.142 590.99C541.408 596.993 549.732 598.401 555.734 594.136C561.737 589.87 563.145 581.546 558.88 575.544ZM636.017 311.568C645.696 360.461 642.521 411.03 626.802 458.329L631.547 459.906C647.539 411.786 650.769 360.339 640.922 310.597L636.017 311.568ZM626.802 458.329C611.083 505.627 583.357 548.037 546.337 581.41L549.685 585.124C587.348 551.171 615.555 508.026 631.547 459.906L626.802 458.329Z" fill="white"/>
<path d="M344.208 662.987L344.231 665.487L344.231 665.487L344.208 662.987ZM211.28 634.236C215.575 628.255 214.209 619.924 208.227 615.629C202.246 611.333 193.915 612.7 189.62 618.681C185.324 624.662 186.691 632.993 192.672 637.288C198.653 641.584 206.984 640.217 211.28 634.236ZM486.005 621.622C442.891 646.631 394.025 660.022 344.185 660.487L344.231 665.487C394.937 665.014 444.652 651.39 488.514 625.947L486.005 621.622ZM344.185 660.487C294.344 660.952 245.237 648.474 201.664 624.273L199.236 628.644C243.565 653.265 293.526 665.96 344.231 665.487L344.185 660.487Z" fill="white"/>
<path d="M55.4953 453.3L53.1095 454.047L53.1095 454.047L55.4953 453.3ZM44.4771 317.746C51.4467 320.123 59.0237 316.4 61.4008 309.43C63.7779 302.461 60.055 294.884 53.0854 292.506C46.1158 290.129 38.5388 293.852 36.1617 300.822C33.7846 307.791 37.5076 315.368 44.4771 317.746ZM136.189 577.018C99.7562 543.005 72.7739 500.119 57.8811 452.553L53.1095 454.047C68.2609 502.439 95.7117 546.069 132.777 580.673L136.189 577.018ZM57.8811 452.553C42.9882 404.988 40.6947 354.372 51.2248 305.654L46.3377 304.598C35.6248 354.161 37.9581 405.656 53.1095 454.047L57.8811 452.553Z" fill="white"/>
</g>
<defs>
<clipPath id="clip0_216_429">
<rect width="688" height="688" fill="white"/>
</clipPath>
</defs>
</svg>
