<?xml version="1.0" encoding="UTF-8"?><svg id="Layer_2" xmlns="http://www.w3.org/2000/svg" width="216.07824" height="216.07824" viewBox="0 0 216.07824 216.07824"><defs><style>.cls-1{fill:#fff;}.cls-2{stroke-miterlimit:10;stroke-width:.52613px;}.cls-2,.cls-3,.cls-4{fill:#f1bc17;}.cls-2,.cls-4{stroke:#000;}.cls-5{fill:#999;}.cls-4{stroke-linejoin:round;stroke-width:5px;}</style></defs><g id="Layer_1-2"><circle cx="108.03912" cy="108.03912" r="108.03912"/><circle class="cls-1" cx="108.03912" cy="108.03912" r="97.3506"/><rect x="103.48919" y=".26346" width="9.11392" height="92.31031"/><rect x="159.90041" y="38.23152" width="9.11392" height="88.07417" transform="translate(189.60976 -99.88986) rotate(71.2855)"/><rect x="163.79055" y="73.64328" width="9.11392" height="92.57377" transform="translate(335.0521 -2.27338) rotate(108.29062)"/><rect x="142.74907" y="108.73315" width="9.11392" height="92.57377" transform="translate(358.06222 191.24302) rotate(143.29062)"/><rect x="65.24928" y="107.36751" width="9.11392" height="92.57377" transform="translate(31.82406 318.09264) rotate(-142.56121)"/><rect x="44.37561" y="75.36518" width="9.11392" height="92.07802" transform="translate(-48.41085 208.91208) rotate(-110.00214)"/><rect x="48.74985" y="36.82894" width="9.11392" height="90.87932" transform="translate(-41.17017 108.41892) rotate(-72.52993)"/><rect x="132.98331" y="14.02316" width="9.11392" height="90.98806" transform="translate(60.00378 -68.73146) rotate(35.44434)"/><rect x="70.40901" y="10.96828" width="9.11392" height="90.98806" transform="translate(-18.88272 55.90325) rotate(-36.64475)"/><g><g><path class="cls-4" d="m131.41501,47.26721c-.35908-1.35989-2.72531-9.97909-10.30946-14.94468-3.02183-1.9785-7.24563-3.63511-10.5092-4.91498-1.06452-.41746-1.95301-.74269-2.55704-.95887v-.00013h-.00039v.00013c-.60403.21618-1.49252.54141-2.55704.95887-3.26357,1.27987-7.48737,2.93648-10.5092,4.91498-7.58415,4.96559-9.95038,13.58479-10.30946,14.94468-.82972,3.14225-.85226,5.71111-.83916,6.67319.06525,4.77947,1.53574,8.30951,2.35762,10.22957.86594,2.02307,2.41324,4.49315,5.63423,9.35033,4.39258,6.62387,5.05377,7.85249,6.03377,9.27056,1.85545,2.68485,3.47969,4.88903,4.67523,6.47333h11.02839c1.19554-1.58429,2.81978-3.78848,4.67523-6.47333.98-1.41808,1.6412-2.6467,6.03377-9.27056,3.22099-4.85718,4.76829-7.32726,5.63423-9.35033.82188-1.92006,2.29237-5.4501,2.35762-10.22957.0131-.96208-.00944-3.53094-.83916-6.67319Z"/><path class="cls-4" d="m165.45243,105.964c1.18237-.76173,8.64851-5.67563,11.02744-14.42304.94787-3.48532,1.21818-8.01431,1.4269-11.51366.06807-1.14142.10283-2.08692.12177-2.7282l.00012-.00004-.00006-.00018-.00006-.00018-.00012.00004c-.39226-.50767-.97613-1.25216-1.70211-2.13558-2.22573-2.70834-5.10648-6.21349-7.92195-8.47603-7.06619-5.67851-15.99474-5.26545-17.39903-5.18672-3.24486.1819-5.69495.95428-6.6059,1.26404-4.52538,1.53899-7.42824,4.02835-9.00035,5.40334-1.65647,1.44872-3.52751,3.68359-7.15162,8.24788-4.94229,6.22448-5.90646,7.23297-6.95229,8.60322-1.98007,2.5943-3.57446,4.82018-4.71177,6.44678.56761,1.74692,1.1352,3.49378,1.70281,5.24071l.00234.00721,1.70281,5.24071c1.87619.64745,4.47442,1.51107,7.60122,2.44604,1.65151.49383,3.02431.743,10.68137,2.8737,5.61479,1.5624,8.44212,2.27067,10.63377,2.46906,2.08006.18833,5.89173.496,10.45744-.91888.91905-.28484,3.35521-1.1001,6.08727-2.86022Z"/><path class="cls-4" d="m120.1466,156.47381c1.08983.88911,8.07038,6.47136,17.12479,6.03075,3.60765-.17555,7.9985-1.318,11.39107-2.20085,1.10659-.28798,2.01656-.5471,2.6323-.72724l.00008.0001.00016-.00011.00016-.00011-.00008-.0001c.36161-.52993.88924-1.31529,1.50508-2.27873,1.888-2.95371,4.33139-6.77662,5.61317-10.15346,3.21701-8.4751.06509-16.83901-.44373-18.15025-1.17571-3.02983-2.66741-5.12133-3.24351-5.89197-2.86209-3.82832-6.12664-5.81985-7.92014-6.89012-1.88969-1.12772-4.59336-2.21657-10.05418-4.25286-7.44708-2.77693-8.70416-3.38226-10.33053-3.95348-3.0792-1.08148-5.68883-1.91-7.58727-2.489-1.48602,1.07966-2.97199,2.15928-4.45801,3.23894l-.00613.00445c-1.48602,1.07966-2.97199,2.15928-4.45801,3.23894-.03599,1.98444-.05444,4.72237.02259,7.98506.04069,1.72328.22793,3.10589.56768,11.04661.24914,5.82279.44922,8.73061.9378,10.8763.46367,2.03645,1.34892,5.75664,4.10543,9.66167.5549.78604,2.08307,2.85104,4.6013,4.90548Z"/><path class="cls-4" d="m58.10865,128.9938c-.50882,1.31124-3.66074,9.67515-.44373,18.15025,1.28178,3.37683,3.72517,7.19974,5.61317,10.15346.61584.96344,1.14347,1.7488,1.50508,2.27873l-.00008.0001.00016.00011.00016.00011.00008-.0001c.61574.18015,1.52571.43927,2.6323.72724,3.39257.88285,7.78343,2.0253,11.39107,2.20085,9.05441.44061,16.03497-5.14164,17.12479-6.03075,2.51823-2.05444,4.0464-4.11944,4.6013-4.90548,2.75651-3.90502,3.64177-7.62522,4.10543-9.66167.48857-2.14569.68866-5.0535.9378-10.8763.33974-7.94071.52699-9.32333.56768-11.04661.07702-3.26269.05857-6.00062.02259-7.98506-1.48602-1.07966-2.97199-2.15928-4.45801-3.23894l-.00613-.00445-4.45801-3.23894c-1.89844.579-4.50806,1.40752-7.58727,2.489-1.62637.57122-2.88344,1.17655-10.33053,3.95348-5.46082,2.03629-8.16448,3.12514-10.05418,4.25286-1.7935,1.07027-5.05805,3.0618-7.92014,6.89012-.5761.77064-2.0678,2.86214-3.24351,5.89197Z"/><path class="cls-4" d="m65.07291,61.50041c-1.4043-.07872-10.33284-.49179-17.39903,5.18672-2.81547,2.26254-5.69622,5.76769-7.92195,8.47603-.72598.88342-1.30986,1.62791-1.70211,2.13558l-.00012-.00004-.00006.00018-.00006.00018.00012.00004c.01894.64127.0537,1.58677.12177,2.7282.20873,3.49934.47903,8.02833,1.4269,11.51366,2.37892,8.74741,9.84506,13.66131,11.02744,14.42304,2.73206,1.76012,5.16822,2.57538,6.08727,2.86022,4.56571,1.41488,8.37738,1.1072,10.45744.91888,2.19165-.19839,5.01897-.90667,10.63377-2.46906,7.65705-2.1307,9.02986-2.37987,10.68137-2.8737,3.1268-.93497,5.72503-1.79859,7.60122-2.44604l1.70281-5.24071.00234-.00721c.56761-1.74692,1.1352-3.49378,1.70281-5.24071-1.13731-1.6266-2.7317-3.85248-4.71177-6.44678-1.04584-1.37025-2.01-2.37874-6.95229-8.60322-3.62411-4.5643-5.49515-6.79916-7.15162-8.24788-1.57211-1.37499-4.47497-3.86435-9.00035-5.40334-.91095-.30976-3.36104-1.08214-6.6059-1.26404Z"/></g><g><circle class="cls-3" cx="108.03912" cy="99.71364" r="7.79868"/><g><path d="m111.87473,69.64144c0-2.64837-1.73535-4.79527-3.87602-4.79527s-3.87602,2.1469-3.87602,4.79527c0,1.84068.84776,3.42009,2.07786,4.22392v13.19816h3.65624v-13.23849c1.19721-.81591,2.01794-2.3731,2.01794-4.18359Z"/><path d="m137.59364,93.87453c2.51875-.81839,4.02432-3.13223,3.36281-5.16813s-3.23958-3.02288-5.75832-2.20449c-1.75059.5688-2.99072,1.86314-3.3751,3.28143l-12.55219,4.07845,1.12984,3.47729,12.59055-4.09092c1.14593.88649,2.88053,1.18584,4.60241.62637Z"/><path d="m122.49418,125.8231c1.55667,2.14257,4.22251,2.85944,5.95435,1.60118s1.87385-4.01515.31718-6.15772c-1.08192-1.48914-2.69613-2.26861-4.16378-2.19589l-7.75768-10.67753-2.95796,2.14909,7.78139,10.71016c-.48898,1.36379-.23767,3.10599.82651,4.57071Z"/><path d="m87.44329,121.33531c-1.55667,2.14257-1.41466,4.89946.31718,6.15772s4.39768.54139,5.95435-1.60118c1.08192-1.48914,1.32442-3.26521.80174-4.63856l7.75768-10.67753-2.95796-2.14909-7.78139,10.71016c-1.44814-.04362-3.02742.73376-4.0916,2.19848Z"/><path d="m80.88012,86.61314c-2.51875-.81839-5.09682.1686-5.75832,2.20449s.84407,4.34974,3.36281,5.16813c1.75059.5688,3.51467.25059,4.65928-.6709l12.55219,4.07845,1.12984-3.47729-12.59055-4.09092c-.40602-1.39074-1.63337-2.6525-3.35525-3.21197Z"/></g><circle cx="108.03912" cy="99.71364" r="12.74842"/><circle class="cls-2" cx="108.03912" cy="99.71364" r="8.47483"/></g></g><g><path class="cls-5" d="m108.03901,211.07863c-21.39551,0-41.62695-6.37598-58.93359-18.50781,17.85645-10.39551,38.08789-15.8584,58.94043-15.8584,20.85059,0,41.0791,5.46094,58.93262,15.85449-17.30762,12.13379-37.54102,18.51172-58.93945,18.51172Z"/><path d="m108.04621,181.71218c17.1438,0,33.84924,3.85645,49.05042,11.24719-14.81738,8.62085-31.5249,13.11877-49.0575,13.11877-17.52917,0-34.23584-4.49731-49.05115-13.11511,15.20374-7.39368,31.91064-11.25085,49.05823-11.25085m0-10c-25.06421,0-48.36414,7.54175-67.76575,20.4718,18.53284,14.94275,42.09863,23.89417,67.75867,23.89417,25.66296,0,49.23108-8.95349,67.76489-23.89929-19.3999-12.92688-42.69702-20.46667-67.75781-20.46667h0Z"/></g></g></svg>