<svg width="644" height="646" viewBox="0 0 644 646" fill="none" xmlns="http://www.w3.org/2000/svg">
<rect width="644" height="646" fill="white"/>
<path d="M268.606 29.863C268.606 37.2268 274.576 43.1964 281.94 43.1964C289.303 43.1964 295.273 37.2268 295.273 29.863C295.273 22.4992 289.303 16.5297 281.94 16.5297C274.576 16.5297 268.606 22.4992 268.606 29.863ZM146.427 90.1704L144.861 88.2216L144.861 88.2216L146.427 90.1704ZM584.046 199.691C584.046 207.054 590.015 213.024 597.379 213.024C604.743 213.024 610.712 207.054 610.712 199.691C610.712 192.327 604.743 186.357 597.379 186.357C590.015 186.357 584.046 192.327 584.046 199.691ZM504.053 84.4039L505.531 82.387L505.531 82.387L504.053 84.4039ZM515.595 547.274C515.595 554.638 521.564 560.607 528.928 560.607C536.292 560.607 542.261 554.638 542.261 547.274C542.261 539.91 536.292 533.94 528.928 533.94C521.564 533.94 515.595 539.91 515.595 547.274ZM325.125 626.993L325.148 629.493L325.125 626.993ZM168.033 590.465C168.033 597.828 174.003 603.798 181.367 603.798C188.731 603.798 194.7 597.828 194.7 590.465C194.7 583.101 188.731 577.131 181.367 577.131C174.003 577.131 168.033 583.101 168.033 590.465ZM16.3649 269.132C16.3649 276.496 22.3344 282.466 29.6982 282.466C37.062 282.466 43.0316 276.496 43.0316 269.132C43.0316 261.768 37.062 255.799 29.6982 255.799C22.3344 255.799 16.3649 261.768 16.3649 269.132ZM281.54 27.3952C231.484 35.5019 184.39 56.4606 144.861 88.2216L147.993 92.1192C186.847 60.9003 233.138 40.2993 282.339 32.3309L281.54 27.3952ZM144.861 88.2216C105.332 119.983 74.723 161.458 56.0264 208.594L60.6741 210.437C79.0517 164.106 109.139 123.338 147.993 92.1192L144.861 88.2216ZM599.659 198.666C578.874 152.414 546.44 112.348 505.531 82.387L502.576 86.4208C542.788 115.871 574.668 155.253 595.099 200.715L599.659 198.666ZM505.531 82.387C464.621 52.4255 416.636 33.594 366.268 27.7339L365.69 32.7004C415.199 38.4605 462.365 56.9707 502.576 86.4208L505.531 82.387ZM616.934 275.575C626.613 324.468 623.438 375.037 607.719 422.335L612.464 423.912C628.456 375.792 631.686 324.346 621.839 274.604L616.934 275.575ZM607.719 422.335C592 469.634 564.274 512.044 527.254 545.417L530.602 549.131C568.265 515.178 596.472 472.032 612.464 423.912L607.719 422.335ZM466.922 585.629C423.808 610.637 374.942 624.029 325.101 624.493L325.148 629.493C375.854 629.02 425.569 615.397 469.431 589.954L466.922 585.629ZM325.101 624.493C275.261 624.958 226.154 612.48 182.581 588.279L180.153 592.65C224.482 617.271 274.443 629.966 325.148 629.493L325.101 624.493ZM117.106 541.024C80.6732 507.011 53.6909 464.125 38.7981 416.56L34.0265 418.054C49.1779 466.445 76.6286 510.075 113.694 544.679L117.106 541.024ZM38.7981 416.56C23.9052 368.994 21.6117 318.378 32.1418 269.66L27.2547 268.604C16.5418 318.167 18.8751 369.662 34.0265 418.054L38.7981 416.56Z" fill="black"/>
<path d="M207.934 577.531C188.654 575.579 170.233 568.347 154.333 556.485C148.674 552.264 138.785 542.374 134.518 536.67C119.214 516.21 111.664 491.322 113.432 467.16C115.392 440.368 125.601 417.795 144.106 399.334C153.058 390.403 163.313 383.318 174.639 378.237C180.844 375.453 288.087 340.464 288.316 341.149C289.035 343.307 293.393 349.872 295.942 352.639C297.694 354.54 299.127 356.211 299.127 356.353C299.127 356.496 291.462 367.113 282.094 379.948C264.791 403.653 263.798 405.248 265.254 407.002C265.944 407.833 267.979 407.881 269.017 407.09C269.431 406.775 277.335 396.078 286.581 383.32C295.827 370.562 303.548 359.958 303.738 359.757C303.928 359.555 305.526 360.119 307.29 361.01C310.561 362.662 315.705 364.22 319.662 364.755L321.867 365.053V422.058C321.867 458.298 321.69 480.813 321.382 483.868C318.023 517.178 298.751 546.845 269.291 564.054C258.235 570.512 245.766 574.82 232.299 576.835C226.291 577.734 213.541 578.098 207.934 577.531ZM422.805 577.519C411.908 576.387 401.056 573.655 391.654 569.678C361.129 556.765 338.103 529.572 330.527 497.492C327.653 485.32 327.727 487.174 327.56 423.39L327.408 365.066L330.09 364.739C333.4 364.335 340.42 362.092 343.153 360.565C344.272 359.939 345.336 359.427 345.517 359.427C345.698 359.427 353.556 370.067 362.978 383.072C372.4 396.077 380.585 406.975 381.166 407.29C381.902 407.688 382.607 407.728 383.486 407.421C384.491 407.07 384.777 406.647 384.882 405.363C385.002 403.892 383.453 401.607 367.618 379.889L350.222 356.031L353.491 352.531C356.547 349.258 360.85 342.782 360.85 341.454C360.85 341.129 361.103 340.864 361.413 340.864C362.823 340.864 470.173 376.047 474.086 377.792C505.974 392.009 528.33 420.265 534.828 454.564C541.706 490.874 527.966 529.301 499.61 553.057C484.508 565.71 466.469 573.882 447.141 576.826C441.159 577.738 428.402 578.101 422.805 577.519ZM139.018 373.15C115.884 370.208 95.6876 360.64 79.1965 344.809C61.8641 328.17 51.5071 308.062 47.7633 283.782C46.6359 276.47 46.6347 262.333 47.7609 255.009C52.4827 224.3 68.4765 199.075 94.002 182.079C125.715 160.963 168.374 159.357 201.748 178.021C211.164 183.287 221.24 191.184 227.441 198.158C229.219 200.158 231.169 202.315 231.774 202.953C232.378 203.59 247.792 224.655 266.026 249.763L299.18 295.415L296.316 298.532C293.334 301.776 290.914 305.252 289.245 308.687C288.708 309.793 288.009 310.699 287.692 310.699C287.376 310.699 274.913 306.731 259.996 301.881C245.08 297.031 232.266 293.063 231.52 293.063C230.774 293.063 229.913 293.314 229.607 293.62C228.751 294.476 228.946 296.538 229.969 297.464C230.474 297.921 243.347 302.333 258.575 307.269C273.802 312.204 286.325 316.306 286.403 316.384C286.481 316.462 286.353 317.355 286.118 318.369C285.598 320.609 285.569 330.628 286.073 333.231L286.438 335.112L233.032 352.466C203.658 362.011 178.163 370.198 176.377 370.659C165.687 373.417 149.57 374.492 139.018 373.15ZM487.312 373.274C478.338 372.264 472.008 370.401 417.848 352.826L363.106 335.063L363.382 333.671C364.074 330.186 364.159 322.43 363.539 319.479L362.897 316.426L390.719 307.423C406.022 302.47 419.031 298.034 419.629 297.564C420.814 296.632 421.093 294.554 420.159 293.62C419.853 293.314 418.989 293.063 418.239 293.063C417.489 293.063 405.609 296.73 391.839 301.21C378.068 305.691 365.548 309.747 364.016 310.224L361.23 311.091L360.286 308.958C358.813 305.627 356.436 302.158 353.414 298.927C351.888 297.296 350.64 295.822 350.64 295.651C350.64 295.48 365.93 274.33 384.617 248.652C412.465 210.385 419.471 201.048 423.452 196.893C436.924 182.834 453.513 173.151 472.532 168.246C481.9 165.83 487.112 165.222 498.45 165.222C509.745 165.222 515.278 165.863 524.506 168.242C561.648 177.819 590.917 207.497 600.008 244.799C603.781 260.282 603.888 277.496 600.304 292.879C591.266 331.683 560.267 362.513 521.487 371.267C511.195 373.59 497.344 374.404 487.312 373.274ZM316.298 358.478C304.569 355.452 295.465 346.461 292.096 334.578C290.635 329.423 290.635 322.139 292.096 316.985C295.52 304.906 304.647 296.021 316.729 293.004C319.96 292.197 321.577 292.066 326.011 292.25C335.242 292.633 341.853 295.483 348.351 301.881C358.842 312.21 361.438 327.032 355.058 340.168C350.457 349.639 342.736 356.003 332.814 358.502C327.976 359.722 321.077 359.711 316.298 358.478ZM271.282 247.048C253.287 222.266 237.913 201.023 237.117 199.842C228.956 187.733 223.189 171.848 221.09 155.695C220.23 149.071 220.351 135.175 221.325 128.778C224.744 106.325 234.432 86.61 249.915 70.5971C265.88 54.0847 286.694 43.4781 310.265 39.8438C317.515 38.7258 331.62 38.7271 339.247 39.8463C386.732 46.815 422.786 83.8572 428.632 131.681C429.453 138.4 428.971 154.047 427.735 160.8C425.287 174.173 420.949 185.608 413.645 197.935C412.212 200.354 347.513 290.047 345.757 292.05C345.687 292.13 344.407 291.585 342.913 290.838C339.029 288.896 334.887 287.562 330.899 286.969L327.436 286.453V256.437C327.436 233.71 327.3 226.286 326.879 225.864C326.159 225.145 323.607 225.145 322.888 225.864C322.466 226.286 322.331 233.711 322.331 256.44V286.459L319.753 286.781C315.943 287.257 310.896 288.757 307.48 290.428C305.821 291.239 304.359 291.949 304.232 292.006C304.104 292.062 289.276 271.831 271.282 247.048Z" fill="black"/>
<circle cx="324.917" cy="219.904" r="7" fill="white" stroke="black" stroke-width="3"/>
<circle cx="224.417" cy="292.904" r="7" fill="white" stroke="black" stroke-width="3"/>
<circle cx="263.417" cy="407.904" r="7" fill="white" stroke="black" stroke-width="3"/>
<circle cx="385.417" cy="408.904" r="7" fill="white" stroke="black" stroke-width="3"/>
<circle cx="422.417" cy="293.904" r="7" fill="white" stroke="black" stroke-width="3"/>
</svg>
