<svg id="Layer_1" xmlns="http://www.w3.org/2000/svg" viewBox="0 0 410.3 434"><style>.st0{fill:none;stroke:#ED5124;stroke-width:2;stroke-linejoin:round;stroke-miterlimit:10;} .st1{fill:#ED5124;} .st2{font-family:&apos;Arial&apos;;} .st3{font-size:26px;} .st4{fill:none;stroke:#38D122;stroke-width:2;stroke-linejoin:round;stroke-miterlimit:10;} .st5{fill:#38D122;} .st6{fill:none;stroke:#616585;stroke-width:2;stroke-miterlimit:10;} .st7{fill:#616585;} .st8{fill:none;stroke:#186DEA;stroke-width:2;stroke-linejoin:round;stroke-miterlimit:10;} .st9{fill:#186DEA;} .st10{fill:none;stroke:#CE1329;stroke-width:2;stroke-linejoin:round;stroke-miterlimit:10;} .st11{fill:#CE1329;} .st12{fill:none;stroke:#EAD226;stroke-width:2;stroke-linejoin:round;stroke-miterlimit:10;} .st13{fill:#EAD226;} .st14{fill:none;stroke:#9D28CE;stroke-width:2;stroke-linejoin:round;stroke-miterlimit:10;} .st15{fill:#9D28CE;}</style><path class="st0" d="M168.2 138.8l-38.8-67.2 38.8-67.2h77.6l38.8 67.2-38.8 67.2z"/><text transform="translate(172.34 75.116)" class="st1 st2 st3">useful</text><path class="st4" d="M292 211l-39-67.2 39-67.2h77.5l38.8 67.2-38.8 67.2z"/><text transform="translate(270.712 147.32)" class="st5 st2 st3">desireable</text><path class="st6" d="M44.2 211L5.4 143.8l38.8-67.2h77.6l38.8 67.2-38.8 67.2z"/><text transform="translate(44.692 147.32)" class="st7 st2 st3">usable</text><path class="st8" d="M168.2 283.2L129.4 216l38.8-67.2h77.6l38.8 67.2-38.8 67.2z"/><text transform="translate(158.604 219.522)" class="st9 st2 st3">valuable</text><g><path class="st10" d="M44.2 356.4L5.4 289.2 44.2 222h77.6l38.8 67.2-38.8 67.2z"/><text transform="translate(37.462 292.725)" class="st11 st2 st3">findable</text></g><g><path class="st12" d="M168.2 427.6l-38.8-67.2 38.8-67.2h77.6l38.8 67.2-38.8 67.2z"/><text transform="translate(161.505 363.928)" class="st13 st2 st3">credible</text></g><g><path class="st14" d="M292 355.4l-39-67.2 39-67.2h77.5l38.8 67.2-38.8 67.2z"/><text transform="translate(270 291.725)" class="st15 st2 st3">accessible</text></g></svg>