<svg xmlns="http://www.w3.org/2000/svg" width="434.6" height="481"><path d="M79.7 471l27-21.3c40.9-32.7 81.5-65.6 118.5-102.8 11.6-11.7 22.7-23.8 31.4-38.1 7.9-13 7.9-26.1 3.1-39.8-5.6-15.8-14.6-29.7-25.7-41.9-14.6-16-30.1-31.1-45.2-46.5-1.2-1.3-3.1-1.9-4.7-2.8.4-.6.8-1.3 1.2-1.9 10.8-3.3 21.7-6.2 32.3-10 6.7-2.4 11.5-1.2 17.2 3 21.1 15.5 41.6 31.8 58.6 51.9 13.1 15.6 23.7 32.7 24.5 54 .5 12.7-3.7 24.3-10.9 34.7-13.6 19.5-31.4 34.9-49.8 49.5-43.3 34.3-90.5 63-138.1 90.9-12.8 7.5-25.6 14.7-38.5 22.1-.3-.4-.6-.7-.9-1zM123.5 110.2c2.1-19.3 10.5-33.5 26.9-42.2 17.5-9.3 34.9-8 52.8 2.8-8.5 4.8-16.2 9.1-23.9 13.4 6.9-.5 12.9.2 15.8 7.4 2.1 5.3.1 9.5-7.4 15.6 12.3-3.2 23.4-6 35.2-9 4.3 16.9 2.1 32.8-9.5 46.5-13.7 16.3-31.5 22.2-52.1 16.8-19.3-5-31.3-17.9-36.3-36.9 20.1-7.3 39.7-14.3 59.3-21.5 1.4-.5 2.9-1 4.1-1.7 3.5-2 5-5 3.4-8.8-1.6-3.7-4.7-5.3-8.6-3.9-9.7 3.4-19.4 7-29.1 10.5-9.7 3.5-19.6 7.1-30.6 11zM409.2 481c-1.1-1.8-2.2-3.5-3.1-5.4-13.2-25.4-25.2-51.5-39.9-76-9.8-16.4-23.2-30.7-35.2-45.8-6-7.5-12.8-14.5-19-21.9-.9-1.1-1.4-4.1-.7-4.9 10.9-12.5 17.5-27 20.3-43.7 20.1 29.9 39.4 60 52.6 93.5 13.3 33.4 19.1 68.8 25 104.2z"/><path d="M211.1 221.3c-69.9 20.4-139.8 23-211.1 5.8 2.2-.3 3.6-.6 5.1-.8 1.7-.2 3.3-.2 5-.3 39.1-2.8 78-7.5 115.2-20.3 15.5-5.3 30.5-12.4 45.5-19 2.8-1.2 4.5-1.4 7 .7 12.2 10.3 23.3 21.4 33.3 33.9zM278.5 188c-13.3-10.7-25.8-20.8-38.8-31.2 3.2-2.3 6.2-4.3 9.1-6.4 25.2-18.6 44.5-42.4 61-68.8 14.9-23.8 27.4-48.7 38.6-74.4 1-2.3 2-4.5 3.2-7.2.7 8-14.8 75.5-24.3 98.6-13 31.5-30.7 60.4-48.8 89.4zM434.6 266.4c.1 14-10.8 25.2-24.8 25.3-13.8.1-25.2-11.2-25.2-25 0-13.6 11.1-24.8 24.7-25 13.9-.3 25.2 10.8 25.3 24.7zM434.5 179.5c.1 14-11 25.2-24.9 25.1-13.9-.1-25.2-11.4-25.1-25.1.1-13.6 11.3-24.8 24.9-24.9 13.9-.2 25.1 11 25.1 24.9zM191.4 81.9c6.1-3.4 11.2-6.5 16.6-8.9 1.1-.5 4.3.8 4.8 2 2.4 5.3 4.3 10.8 5.9 16.3.4 1.2-.9 4-2 4.4-5.5 1.8-11.1 3-17.6 4.6 1.4-7.8-.7-13.8-7.7-18.4z"/></svg>